<svg width="327" height="237" viewBox="0 0 327 237" fill="none" xmlns="http://www.w3.org/2000/svg">
<path d="M306.389 59.7666C306.389 73.0457 295.624 83.8105 282.345 83.8105C269.066 83.8105 258.301 73.0457 258.301 59.7666C258.301 46.4875 269.066 35.7227 282.345 35.7227C295.624 35.7227 306.389 46.4875 306.389 59.7666Z" fill="#20CD20"/>
<path d="M296.771 81.7497C296.771 88.9583 290.312 94.8021 282.344 94.8021C274.377 94.8021 267.918 88.9583 267.918 81.7497C267.918 74.541 274.377 68.6973 282.344 68.6973C290.312 68.6973 296.771 74.541 296.771 81.7497Z" fill="#20CD20"/>
<path d="M282.344 81.0625C258.02 81.0625 238.237 100.801 237.692 125.361C237.679 125.934 238.138 126.402 238.703 126.402H325.986C326.551 126.402 327.01 125.934 326.997 125.361C326.452 100.801 306.669 81.0625 282.344 81.0625Z" fill="#20CD20"/>
<path d="M89.3066 96.8623C89.3066 110.141 78.5418 120.906 65.2627 120.906C51.9836 120.906 41.2188 110.141 41.2188 96.8623C41.2188 83.5832 51.9836 72.8184 65.2627 72.8184C78.5418 72.8184 89.3066 83.5832 89.3066 96.8623Z" fill="#EE6A00"/>
<path d="M79.6897 118.158C79.6897 125.746 73.5384 131.898 65.9503 131.898C58.3623 131.898 52.2109 125.746 52.2109 118.158C52.2109 110.57 58.3623 104.419 65.9503 104.419C73.5384 104.419 79.6897 110.57 79.6897 118.158Z" fill="#EE6A00"/>
<path d="M65.2624 118.158C40.9379 118.158 21.155 137.897 20.6096 162.457C20.5969 163.03 21.056 163.498 21.6209 163.498H108.904C109.469 163.498 109.928 163.03 109.915 162.457C109.37 137.897 89.5869 118.158 65.2624 118.158Z" fill="#EE6A00"/>
<path d="M192.352 71.4443H177.238V103.045H192.352V71.4443Z" fill="#0085F9"/>
<path d="M171.743 71.4443H162.125V103.045H171.743V71.4443Z" fill="#0085F9"/>
<path d="M158.003 71.4443H151.133V103.045H158.003V71.4443Z" fill="#0085F9"/>
<path d="M201.969 155.942C201.969 172.256 188.436 185.482 171.742 185.482C155.049 185.482 141.516 172.256 141.516 155.942C141.516 139.628 155.049 126.402 171.742 126.402C188.436 126.402 201.969 139.628 201.969 155.942Z" fill="#0085F9"/>
<path d="M188.228 181.36C188.228 191.225 180.847 199.221 171.741 199.221C162.636 199.221 155.254 191.225 155.254 181.36C155.254 171.496 162.636 163.499 171.741 163.499C180.847 163.499 188.228 171.496 188.228 181.36Z" fill="#0085F9"/>
<path d="M172.43 181.36C142.036 181.36 117.334 205.419 116.785 235.303C116.775 235.861 117.235 236.318 117.8 236.318H227.059C227.625 236.318 228.084 235.861 228.074 235.303C227.526 205.419 202.823 181.36 172.43 181.36Z" fill="#0085F9"/>
<path fill-rule="evenodd" clip-rule="evenodd" d="M60.4531 170.368H63.8636V193.15L80.5992 209.607H108.541V212.96H79.1866L60.4531 194.539V170.368Z" fill="#124258"/>
<path fill-rule="evenodd" clip-rule="evenodd" d="M287.154 138.768V183.162L255.965 214.334H233.57V210.868H254.528L283.686 181.726V138.768H287.154Z" fill="#124258"/>
<path fill-rule="evenodd" clip-rule="evenodd" d="M11.763 107.624V75.5664H8.24219V109.023L26.3617 126.402L28.8513 124.014L11.763 107.624Z" fill="#124258"/>
<path fill-rule="evenodd" clip-rule="evenodd" d="M217.862 66.9294V35.7227H214.336V68.313L237.948 90.6802L240.441 88.3183L217.862 66.9294Z" fill="#124258"/>
<path d="M21.983 52.2093C21.983 58.2797 17.062 63.2008 10.9915 63.2008C4.92107 63.2008 0 58.2797 0 52.2093C0 46.1388 4.92107 41.2178 10.9915 41.2178C17.062 41.2178 21.983 46.1388 21.983 52.2093Z" fill="#CCD8DD"/>
<path d="M127.776 17.8616C127.776 23.9321 122.855 28.8531 116.784 28.8531C110.714 28.8531 105.793 23.9321 105.793 17.8616C105.793 11.7912 110.714 6.87012 116.784 6.87012C122.855 6.87012 127.776 11.7912 127.776 17.8616Z" fill="#CCD8DD"/>
<path d="M140.143 54.9573C140.143 61.0278 135.222 65.9488 129.152 65.9488C123.081 65.9488 118.16 61.0278 118.16 54.9573C118.16 48.8869 123.081 43.9658 129.152 43.9658C135.222 43.9658 140.143 48.8869 140.143 54.9573Z" fill="#CCD8DD"/>
<path d="M226.702 17.8616C226.702 23.9321 221.781 28.8531 215.71 28.8531C209.64 28.8531 204.719 23.9321 204.719 17.8616C204.719 11.7912 209.64 6.87012 215.71 6.87012C221.781 6.87012 226.702 11.7912 226.702 17.8616Z" fill="#CCD8DD"/>
<path fill-rule="evenodd" clip-rule="evenodd" d="M164.159 17.8613H196.474V21.1999H165.574L143.522 42.7453L141.106 40.3846L164.159 17.8613ZM102.347 32.3959L80.6605 53.5837H31.6016V50.2452H79.2451L99.9304 30.0351L102.347 32.3959Z" fill="#124258"/>
<path fill-rule="evenodd" clip-rule="evenodd" d="M281.656 2.42737L263.687 20.6091H234.315V17.1763H262.281L279.257 0L281.656 2.42737ZM59.0781 17.1763H94.5326V20.6091H59.0781V17.1763Z" fill="#124258"/>
</svg>
