<svg width="102" height="24" viewBox="0 0 102 24" fill="none" xmlns="http://www.w3.org/2000/svg">
<path d="M50.7706 0.00134277H48.0674V24.0004H50.7706V0.00134277Z" fill="#B90000"/>
<path d="M47.4936 0.00134277H46.1338V24.0004H47.4936V0.00134277Z" fill="#820000"/>
<path d="M46.1829 0.00134277H44.2988V24.0004H46.1829V0.00134277Z" fill="#B90000"/>
<path d="M43.7581 0.00134277H39.0234V24.0004H43.7581V0.00134277Z" fill="#B90000"/>
<path d="M38.4019 0.00134277H36.0264V24.0004H38.4019V0.00134277Z" fill="#B90000"/>
<path d="M35.7798 0.00134277H34.502V24.0004H35.7798V0.00134277Z" fill="#820000"/>
<path d="M34.6337 0.00134277H33.6016V24.0004H34.6337V0.00134277Z" fill="#B90000"/>
<path d="M33.1266 0.00134277H29.8828V24.0004H33.1266V0.00134277Z" fill="#DB5013"/>
<path d="M27.1795 0.00134277H26.2129V24.0004H27.1795V0.00134277Z" fill="#F8F84A"/>
<path d="M29.981 0.00134277H28.998V24.0004H29.981V0.00134277Z" fill="#B90000"/>
<path d="M29.1779 0.00134277H27.5068V24.0004H29.1779V0.00134277Z" fill="#DB5013"/>
<path d="M26.2781 0.00134277H24.5088V24.0004H26.2781V0.00134277Z" fill="#F0CF31"/>
<path d="M24.5417 0.00134277H21.7402V24.0004H24.5417V0.00134277Z" fill="#E8A728"/>
<path d="M21.8549 0.00134277H19.5449V24.0004H21.8549V0.00134277Z" fill="#F0CF31"/>
<path d="M13.5316 0.00134277H9.38672V24.0004H13.5316V0.00134277Z" fill="#F0CF31"/>
<path d="M9.05945 0.00134277H6.78223V24.0004H9.05945V0.00134277Z" fill="#F8F84A"/>
<path d="M6.38938 0.00134277H4.83301V24.0004H6.38938V0.00134277Z" fill="#F0CF31"/>
<path d="M4.86497 0.00134277H3.30859V24.0004H4.86497V0.00134277Z" fill="#F8F84A"/>
<path d="M3.42423 0.00134277H0.966797V24.0004H3.42423V0.00134277Z" fill="#EBEBC6"/>
<path d="M1.19595 0.00134277H0V24.0004H1.19595V0.00134277Z" fill="#F0CF31"/>
<path d="M6.76624 0.00134277H6.37305V24.0004H6.76624V0.00134277Z" fill="#DB5013"/>
<path d="M9.50223 0.00134277H9.01074V24.0004H9.50223V0.00134277Z" fill="#DF731B"/>
<path d="M19.0198 0.00134277H14.5801V24.0004H19.0198V0.00134277Z" fill="#F8F84A"/>
<path d="M14.1542 0.00134277H13.417V24.0004H14.1542V0.00134277Z" fill="#F8F84A"/>
<path d="M14.6136 0.00134277H14.1221V24.0004H14.6136V0.00134277Z" fill="#E8A728"/>
<path d="M19.6101 0.00134277H19.0039V24.0004H19.6101V0.00134277Z" fill="#DF731B"/>
<path d="M27.5884 0.00134277H27.1133V24.0004H27.5884V0.00134277Z" fill="#E8A728"/>
<path d="M33.6667 0.00134277H33.0605V24.0004H33.6667V0.00134277Z" fill="#A80000"/>
<path d="M36.1574 0.00134277H35.7314V24.0004H36.1574V0.00134277Z" fill="#A80000"/>
<path d="M38.8439 0.00134277H38.418V24.0004H38.8439V0.00134277Z" fill="#A80000"/>
<path d="M38.2944 23.999H39.1299V0H38.2944V23.999Z" fill="#A80000"/>
<path d="M44.3647 0.00134277H43.7422V24.0004H44.3647V0.00134277Z" fill="#DF731B"/>
<path d="M62.4023 0.00134277H60.7148V24.0004H62.4023V0.00134277Z" fill="#DF731B"/>
<path d="M69.3151 0.00134277H62.6309V24.0004H69.3151V0.00134277Z" fill="#DF731B"/>
<path d="M72.9038 0.00134277H69.1357V24.0004H72.9038V0.00134277Z" fill="#F8F84A"/>
<path d="M82.0792 0.00134277H79.0156V24.0004H82.0792V0.00134277Z" fill="#E3E6E8"/>
<path d="M87.6326 0.00134277H85.8633V24.0004H87.6326V0.00134277Z" fill="#F8F84A"/>
<path d="M87.9268 0.00134277H87.4189V24.0004H87.9268V0.00134277Z" fill="#E3E6E8"/>
<path d="M86.01 0.00134277H83.1758V24.0004H86.01V0.00134277Z" fill="#E3E6E8"/>
<path d="M88.7622 0.00134277H87.8447V24.0004H88.7622V0.00134277Z" fill="#F8F84A"/>
<path d="M89.5324 0.00134277H88.6641V24.0004H89.5324V0.00134277Z" fill="#F0CF31"/>
<path d="M90.6964 0.00134277H89.5332V24.0004H90.6964V0.00134277Z" fill="#F8F84A"/>
<path d="M83.2091 0.00134277H82.0459V24.0004H83.2091V0.00134277Z" fill="#F8F84A"/>
<path d="M79.1132 0.00134277H73.0352V24.0004H79.1132V0.00134277Z" fill="#F0CF31"/>
<path d="M73.182 0.00134277H72.7725V24.0004H73.182V0.00134277Z" fill="#E8A728"/>
<path d="M62.7797 0.00134277H62.3701V24.0004H62.7797V0.00134277Z" fill="#DB5013"/>
<path d="M60.8452 0.00134277H60.3701V24.0004H60.8452V0.00134277Z" fill="#E8A728"/>
<path d="M60.518 0.00134277H59.1582V24.0004H60.518V0.00134277Z" fill="#820000"/>
<path d="M59.3223 0.00134277H50.8359V24.0004H59.3223V0.00134277Z" fill="#A80000"/>
<path d="M48.2309 0.00134277H47.4609V24.0004H48.2309V0.00134277Z" fill="#A80000"/>
<path d="M102 0.00134277H99.2969V24.0004H102V0.00134277Z" fill="#B90000"/>
<path d="M98.7231 0.00134277H97.3633V24.0004H98.7231V0.00134277Z" fill="#820000"/>
<path d="M97.4124 0.00134277H95.5283V24.0004H97.4124V0.00134277Z" fill="#B90000"/>
<path d="M94.988 0.00134277H90.7939V24.0004H94.988V0.00134277Z" fill="#820000"/>
<path d="M95.5933 0.00134277H94.9707V24.0004H95.5933V0.00134277Z" fill="#DF731B"/>
<path d="M99.4614 0.00134277H98.6914V24.0004H99.4614V0.00134277Z" fill="#A80000"/>
<path d="M51.0647 0.00134277H50.5732V24.0004H51.0647V0.00134277Z" fill="#820000"/>
<path d="M90.7942 0.00134277H90.4502V24.0004H90.7942V0.00134277Z" fill="#B90000"/>
</svg>
