<svg width="102" height="24" viewBox="0 0 102 24" fill="none" xmlns="http://www.w3.org/2000/svg">
<path d="M98.6565 0H97.001V24H98.6565V0Z" fill="#DB5013"/>
<path d="M66.7931 0H66.498V24H66.7931V0Z" fill="#DB5013"/>
<path d="M69.6447 0H67.9893V24H69.6447V0Z" fill="#DB5013"/>
<path d="M68.0387 0H67.6289V24H68.0387V0Z" fill="#820000"/>
<path d="M97.1157 0H95.9355V24H97.1157V0Z" fill="#E8A728"/>
<path d="M70.2177 0H69.9062V24H70.2177V0Z" fill="#E8A728"/>
<path d="M95.9679 0H94.6074V24H95.9679V0Z" fill="#F0CF31"/>
<path d="M87.2975 0H86.6582V24H87.2975V0Z" fill="#EBEBC6"/>
<path d="M85.4782 0H85.1504V24H85.4782V0Z" fill="#EBEBC6"/>
<path d="M90.281 0H89.4287V24H90.281V0Z" fill="#F0CF31"/>
<path d="M94.4928 0H92.6406V24H94.4928V0Z" fill="#F0CF31"/>
<path d="M71.5132 0H70.1855V24H71.5132V0Z" fill="#F0CF31"/>
<path d="M42.0092 0H41.665V24H42.0092V0Z" fill="#F0CF31"/>
<path d="M26.6186 0H26.2744V24H26.6186V0Z" fill="#F0CF31"/>
<path d="M69.9394 0H69.4805V24H69.9394V0Z" fill="#F0CF31"/>
<path d="M100.115 0H98.46V24H100.115V0Z" fill="#DB5013"/>
<path d="M98.525 0H98.1152V24H98.525V0Z" fill="#820000"/>
<path d="M100.688 0H100.377V24H100.688V0Z" fill="#E8A728"/>
<path d="M102.001 0H100.673V24H102.001V0Z" fill="#F0CF31"/>
<path d="M100.41 0H99.9512V24H100.41V0Z" fill="#F0CF31"/>
<path d="M89.084 0H87.2646V24H89.084V0Z" fill="#A6C7DC"/>
<path d="M80.4951 0H77.7578V24H80.4951V0Z" fill="#A6C7DC"/>
<path d="M61.5801 0H61.2031V24H61.5801V0Z" fill="#A6C7DC"/>
<path d="M53.2696 0H52.8926V24H53.2696V0Z" fill="#A6C7DC"/>
<path d="M83.7899 0H80.3643V24H83.7899V0Z" fill="#E3E6E8"/>
<path d="M52.9254 0H51.3027V24H52.9254V0Z" fill="#EBEBC6"/>
<path d="M40.5511 0H33.585V24H40.5511V0Z" fill="#EBEBC6"/>
<path d="M57.7614 0H53.2539V24H57.7614V0Z" fill="#E3E6E8"/>
<path d="M24.1438 0H21.2754V24H24.1438V0Z" fill="#E3E6E8"/>
<path d="M7.01452 0H0.245117V24H7.01452V0Z" fill="#E3E6E8"/>
<path d="M16.1938 0H13.9482V24H16.1938V0Z" fill="#E3E6E8"/>
<path d="M9.99895 0H7.63867V24H9.99895V0Z" fill="#E3E6E8"/>
<path d="M41.682 0H40.7969V24H41.682V0Z" fill="#E3E6E8"/>
<path d="M76.8566 0H74.9717V24H76.8566V0Z" fill="#E3E6E8"/>
<path d="M66.5302 0H64.1699V24H66.5302V0Z" fill="#E3E6E8"/>
<path d="M77.8728 0H77.168V24H77.8728V0Z" fill="#E3E6E8"/>
<path d="M85.1669 0H83.79V24H85.1669V0Z" fill="#A6C7DC"/>
<path d="M64.2844 0H63.9238V24H64.2844V0Z" fill="#A6C7DC"/>
<path d="M21.3411 0H20.9805V24H21.3411V0Z" fill="#A6C7DC"/>
<path d="M77.2337 0H76.7256V24H77.2337V0Z" fill="#A6C7DC"/>
<path d="M86.691 0H85.4453V24H86.691V0Z" fill="#A6C7DC"/>
<path d="M90.9198 0H90.6084V24H90.9198V0Z" fill="#F0CF31"/>
<path d="M95.001 0H94.3945V24H95.001V0Z" fill="#F8F84A"/>
<path d="M89.461 0H89.084V24H89.461V0Z" fill="#D1DDE5"/>
<path d="M90.6244 0H90.1982V24H90.6244V0Z" fill="#F8F84A"/>
<path d="M92.7069 0H90.8711V24H92.7069V0Z" fill="#F8F84A"/>
<path d="M67.6283 0H66.7432V24H67.6283V0Z" fill="#F8F84A"/>
<path d="M75.0702 0H71.415V24H75.0702V0Z" fill="#F8F84A"/>
<path d="M63.9076 0H61.5801V24H63.9076V0Z" fill="#F8F84A"/>
<path d="M51.2865 0H41.9766V24H51.2865V0Z" fill="#F8F84A"/>
<path d="M13.0471 0H9.94922V24H13.0471V0Z" fill="#F8F84A"/>
<path d="M32.6999 0H26.6025V24H32.6999V0Z" fill="#F8F84A"/>
<path d="M20.9971 0H16.0635V24H20.9971V0Z" fill="#F8F84A"/>
<path d="M26.061 0H24.0449V24H26.061V0Z" fill="#F8F84A"/>
<path d="M61.2199 0H57.6631V24H61.2199V0Z" fill="#F8F84A"/>
<path d="M33.3395 0H32.9297V24H33.3395V0Z" fill="#F8F84A"/>
<path d="M51.4015 0H51.1064V24H51.4015V0Z" fill="#A6C7DC"/>
<path d="M33.6173 0H33.3223V24H33.6173V0Z" fill="#A6C7DC"/>
<path d="M40.8292 0H40.5342V24H40.8292V0Z" fill="#A6C7DC"/>
<path d="M32.962 0H32.667V24H32.962V0Z" fill="#A6C7DC"/>
<path d="M13.6704 0H13.3262V24H13.6704V0Z" fill="#F8F84A"/>
<path d="M13.9985 0H13.6543V24H13.9985V0Z" fill="#A6C7DC"/>
<path d="M7.32663 0H6.98242V24H7.32663V0Z" fill="#F8F84A"/>
<path d="M7.67149 0H7.26172V24H7.67149V0Z" fill="#A6C7DC"/>
<path d="M0.295034 0H0V24H0.295034V0Z" fill="#A6C7DC"/>
<path d="M13.3419 0H13.0469V24H13.3419V0Z" fill="#A6C7DC"/>
<path d="M26.3243 0H26.0293V24H26.3243V0Z" fill="#A6C7DC"/>
</svg>
