<svg width="102" height="24" viewBox="0 0 102 24" fill="none" xmlns="http://www.w3.org/2000/svg">
<path d="M102 0H100.476V24H102V0Z" fill="#2B4458"/>
<path d="M91.2659 0H90.0859V24H91.2659V0Z" fill="#2B4458"/>
<path d="M100.493 0H92.4297V24H100.493V0Z" fill="#4579AA"/>
<path d="M90.1522 0H89.1689V24H90.1522V0Z" fill="#4579AA"/>
<path d="M42.1825 0H41.8711V24H42.1825V0Z" fill="#4579AA"/>
<path d="M41.3801 0H41.0195V24H41.3801V0Z" fill="#4579AA"/>
<path d="M37.7586 0H37.4473V24H37.7586V0Z" fill="#4579AA"/>
<path d="M62.3416 0H53.8525V24H62.3416V0Z" fill="#4579AA"/>
<path d="M80.794 0H80.499V24H80.794V0Z" fill="#4579AA"/>
<path d="M75.8936 0H75.5986V24H75.8936V0Z" fill="#4579AA"/>
<path d="M86.9225 0H85.0215V24H86.9225V0Z" fill="#DF731B"/>
<path d="M83.5966 0H81.7939V24H83.5966V0Z" fill="#EBEBC6"/>
<path d="M80.5317 0H76.8936V24H80.5317V0Z" fill="#E3E6E8"/>
<path d="M74.2061 0H73.7637V24H74.2061V0Z" fill="#E3E6E8"/>
<path d="M84.6123 0H83.9404V24H84.6123V0Z" fill="#F0CF31"/>
<path d="M81.8591 0H81.2363V24H81.8591V0Z" fill="#F8F84A"/>
<path d="M76.9593 0H76.5332V24H76.9593V0Z" fill="#F8F84A"/>
<path d="M75.058 0H74.3369V24H75.058V0Z" fill="#F8F84A"/>
<path d="M73.7958 0H73.5664V24H73.7958V0Z" fill="#F8F84A"/>
<path d="M41.0537 0H40.8242V24H41.0537V0Z" fill="#F8F84A"/>
<path d="M18.9277 0H18.6982V24H18.9277V0Z" fill="#F8F84A"/>
<path d="M3.98334 0H3.75391V24H3.98334V0Z" fill="#F8F84A"/>
<path d="M5.16107 0H4.93164V24H5.16107V0Z" fill="#F8F84A"/>
<path d="M92.1339 0H91.3965V24H92.1339V0Z" fill="#4579AA"/>
<path d="M92.4294 0H92.0361V24H92.4294V0Z" fill="#7BACD2"/>
<path d="M41.8721 0H41.3477V24H41.8721V0Z" fill="#7BACD2"/>
<path d="M3.80219 0H3.31055V24H3.80219V0Z" fill="#7BACD2"/>
<path d="M23.6316 0H23.2383V24H23.6316V0Z" fill="#7BACD2"/>
<path d="M18.7315 0H18.2891V24H18.7315V0Z" fill="#7BACD2"/>
<path d="M15.9783 0H15.585V24H15.9783V0Z" fill="#7BACD2"/>
<path d="M4.44087 0H3.94922V24H4.44087V0Z" fill="#7BACD2"/>
<path d="M3.39204 0H2.90039V24H3.39204V0Z" fill="#508AC6"/>
<path d="M2.11408 0H0V24H2.11408V0Z" fill="#508AC6"/>
<path d="M2.94996 0H2.55664V24H2.94996V0Z" fill="#2B4458"/>
<path d="M2.6377 0H2.11328V24H2.6377V0Z" fill="#EBEBC6"/>
<path d="M62.7341 0H62.3408V24H62.7341V0Z" fill="#7BACD2"/>
<path d="M76.5655 0H75.8936V24H76.5655V0Z" fill="#7BACD2"/>
<path d="M73.5999 0H62.6689V24H73.5999V0Z" fill="#508AC6"/>
<path d="M53.753 0H42.1338V24H53.753V0Z" fill="#508AC6"/>
<path d="M87.8734 0H87.2998V24H87.8734V0Z" fill="#E8A728"/>
<path d="M75.5984 0H75.2051V24H75.5984V0Z" fill="#E8A728"/>
<path d="M40.8396 0H40.4463V24H40.8396V0Z" fill="#E8A728"/>
<path d="M74.3695 0H74.1729V24H74.3695V0Z" fill="#E8A728"/>
<path d="M87.2996 0H86.9062V24H87.2996V0Z" fill="#B90000"/>
<path d="M83.99 0H83.5967V24H83.99V0Z" fill="#B90000"/>
<path d="M85.0222 0H84.6289V24H85.0222V0Z" fill="#B90000"/>
<path d="M89.2009 0H88.8076V24H89.2009V0Z" fill="#2B4458"/>
<path d="M53.9174 0H53.7207V24H53.9174V0Z" fill="#2B4458"/>
<path d="M34.7924 0H34.5957V24H34.7924V0Z" fill="#2B4458"/>
<path d="M40.4458 0H37.709V24H40.4458V0Z" fill="#2B4458"/>
<path d="M37.4631 0H34.7754V24H37.4631V0Z" fill="#7BACD2"/>
<path d="M17.6331 0H15.9287V24H17.6331V0Z" fill="#A6C7DC"/>
<path d="M4.93305 0H4.44141V24H4.93305V0Z" fill="#A6C7DC"/>
<path d="M34.6115 0H23.5986V24H34.6115V0Z" fill="#EBEBC6"/>
<path d="M23.254 0H18.9111V24H23.254V0Z" fill="#EBEBC6"/>
<path d="M15.6509 0H5.11328V24H15.6509V0Z" fill="#EBEBC6"/>
<path d="M18.3544 0H17.6006V24H18.3544V0Z" fill="#EBEBC6"/>
<path d="M88.2507 0H87.8574V24H88.2507V0Z" fill="#2B4458"/>
<path d="M91.4959 0H91.1025V24H91.4959V0Z" fill="#508AC6"/>
<path d="M88.9059 0H88.2012V24H88.9059V0Z" fill="#508AC6"/>
<path d="M81.45 0H80.7617V24H81.45V0Z" fill="#7BACD2"/>
<path d="M75.3038 0H75.0088V24H75.3038V0Z" fill="#4579AA"/>
</svg>
