<svg xmlns="http://www.w3.org/2000/svg" xmlns:xlink="http://www.w3.org/1999/xlink" width="25" height="25" viewBox="0 0 25 25"><defs><path id="sx9aa" d="M954.92 5755.16h-6.251v-7.498h4.166v-5h-4.166v-2.084c0-.249.166-.415.415-.415h4.166v-4.999h-4.625c-2.794.25-4.958 2.627-4.958 5.414v2.085h-3.335v4.999h3.335v7.498h-9.582c-.708 0-1.25-.542-1.25-1.25v-20.825c0-.708.542-1.25 1.25-1.25h20.84c.708 0 1.25.542 1.25 1.25l-.005 20.826c0 .707-.542 1.25-1.25 1.25zm-10.422-8.328h-3.335v-3.334h3.335v-2.915c0-2.372 1.83-4.374 4.164-4.584h3.749v3.334h-3.334c-.708 0-1.25.542-1.25 1.25v2.915h4.164v3.334h-4.164v8.333l-3.33-.005zM954.91 5731h-20.826a2.065 2.065 0 0 0-2.085 2.085v20.83c0 1.167.918 2.085 2.085 2.085h20.83a2.065 2.065 0 0 0 2.085-2.085v-20.83a2.072 2.072 0 0 0-2.09-2.085z"/></defs><g><g transform="translate(-932 -5731)"><g><g><use fill="#fff" xlink:href="#sx9aa"/></g></g></g></g></svg>