<?xml version="1.0" encoding="UTF-8"?>
<svg width="25px" height="25px" viewBox="0 0 25 25" version="1.1" xmlns="http://www.w3.org/2000/svg" xmlns:xlink="http://www.w3.org/1999/xlink">
    <!-- Generator: Sketch 50.2 (55047) - http://www.bohemiancoding.com/sketch -->
    <title>icons/facebook/hover copy</title>
    <desc>Created with Sketch.</desc>
    <defs/>
    <g id="icons/facebook/hover-copy" stroke="none" stroke-width="1" fill="none" fill-rule="evenodd">
        <path d="M23.276377,25 L1.72364258,25 C0.776376953,25 9.765625e-06,24.2236328 9.765625e-06,23.2763672 L9.765625e-06,1.72363281 C9.765625e-06,0.776367187 0.776376953,0 1.72364258,0 L23.276377,0 C24.2235937,0 25.0000098,0.776367187 25.0000098,1.72363281 L25.0000098,23.2763672 C25.0000098,24.2236328 24.2235937,25 23.276377,25 Z M21.09375,4.30175781 L16.7822266,4.296875 C14.1113281,4.51171875 12.0410645,6.75292969 12.0410645,9.46777344 L12.0410645,12.0556641 L8.59375,12.0556641 L8.59375,16.3672363 L12.0410645,16.3672363 L12.0410645,24.9902344 L16.3525391,24.9902344 L16.3525391,16.3769531 L20.6640625,16.3769531 L20.6640625,12.0654297 L16.3525391,12.0654297 L16.3525391,9.47753906 C16.3525391,8.99902344 16.7431641,8.61328125 17.2168457,8.61328125 L21.09375,8.61328125 L21.09375,4.30175781 Z" id="Combined-Shape" fill="#FFFFFF"/>
    </g>
</svg>