<?xml version="1.0" encoding="UTF-8"?>
<svg width="25px" height="25px" viewBox="0 0 25 25" version="1.1" xmlns="http://www.w3.org/2000/svg" xmlns:xlink="http://www.w3.org/1999/xlink">
    <!-- Generator: Sketch 50.2 (55047) - http://www.bohemiancoding.com/sketch -->
    <title>icons/twitter/hover copy</title>
    <desc>Created with Sketch.</desc>
    <defs/>
    <g id="icons/twitter/hover-copy" stroke="none" stroke-width="1" fill="none" fill-rule="evenodd">
        <path d="M22.0708846,8.15758641 C21.8023823,9.0167936 21.2703085,9.68560828 20.567272,10.0468658 L20.567272,10.11033 C20.567272,16.0564343 16.1394259,20.8943566 10.7010838,20.8943566 C7.65475493,20.8943566 5.17965241,20.3622339 4.07635227,19.4737356 L4.07147042,19.4688537 C3.92013279,19.3175161 3.87619606,19.1417692 3.93477836,18.9611404 C4.00800625,18.7756298 4.18863503,18.6535833 4.37907635,18.6535833 C5.8484671,18.629174 7.03475884,18.3411443 8.09412224,17.7504394 C6.42945714,17.5063464 5.39445421,16.6666667 4.85256786,15.1288811 C4.78910369,14.9677797 4.84285296,14.7871509 4.99414177,14.6748682 C5.14059754,14.5674673 5.34563562,14.577231 5.47256395,14.6406952 L5.47749463,14.645577 C5.87775825,14.9140793 6.28300137,14.9873072 6.74677797,15.0019527 C5.50673697,14.2062097 4.58406561,13.0296817 4.20328061,11.7555165 C4.1691076,11.5895333 4.2276899,11.3747315 4.38390939,11.3015036 C4.53524702,11.2087483 4.71099395,11.2233939 4.86233158,11.3356766 C5.18941613,11.6041789 5.52138254,11.7603984 5.95098614,11.8531537 C4.56942004,10.3641867 4.27650849,8.55789885 5.15524312,6.87365749 L5.37004491,6.4440539 L5.72642062,6.8004296 C7.64010935,8.80687366 9.34876001,9.695372 12.4829623,10.3056044 L12.4829623,10.2421402 C12.4829623,7.97695763 14.2648409,6.11208748 16.4567467,6.08279633 C17.3354814,6.08279633 18.5315368,6.70279242 19.0197227,6.97129467 C19.0246534,6.97129467 19.0344171,6.97617653 19.0392501,6.97617653 L19.0538957,6.97129467 C19.6787737,6.78090217 20.4549893,6.45869947 21.255663,6.11208748 C21.3874243,6.04374146 21.5680531,6.07303261 21.675454,6.18531537 C21.7877368,6.29759813 21.8121461,6.4440539 21.7486819,6.60515524 C21.5924624,7.0396407 21.3727788,7.43995313 21.0847979,7.8012107 L21.5338801,7.64499121 C21.6852665,7.60593634 21.8512009,7.64987307 21.9537688,7.74751025 C22.0660027,7.84514743 22.1099883,8.01113064 22.0708846,8.15758641 M22.9105643,0 L2.08460262,0 C0.917789494,0 0,0.917789494 0,2.0845538 L0,22.9154462 C0,24.0773286 0.917789494,24.9951181 2.08460262,24.9951181 L11.667643,24.9951181 L16.6667155,24.9951181 L22.915495,24.9951181 C24.0822105,24.9951181 25,24.0773286 25,22.9105643 L25,2.0845538 C24.9951181,0.917789494 24.0773775,0 22.9105643,0" id="Fill-1" fill="#FFFFFF"/>
    </g>
</svg>