<svg xmlns="http://www.w3.org/2000/svg" xmlns:xlink="http://www.w3.org/1999/xlink" width="25" height="25" viewBox="0 0 25 25"><defs><path id="h62ia" d="M1001.137 5739.48l-.215.072v.557c0 5.56-4.116 10.084-9.176 10.084-.627 0-1.146 0-1.586-.005-1.444-.102-2.57-.332-3.382-.61-.162-.074-.338-.162-.538-.255 2.114-.185 3.284-.889 4.15-1.558l.89-.64h-1.076c-1.703 0-2.74-.474-3.343-1.524.553.156 1.136.146 1.689.117.244-.03.49-.03.734-.03h.044l.103-.698-.04-.01c-1.052-.303-2.417-1.236-3.142-2.648.646.26 1.337.288 1.806.288h1.106l-.89-.64c-2.33-1.66-1.885-3.63-1.64-4.294 1.948 1.896 3.842 2.79 7.2 3.4l.425.074v-.919c0-1.87 1.468-3.42 3.274-3.449.68-.03 1.801.581 2.168.782l.02.01c.21.107.406.127.592.063.446-.147.979-.352 1.493-.562a4.81 4.81 0 0 1-1.047 1.148c-.138.103-.182.308-.108.489a.32.32 0 0 0 .196.185c.083.03.186.03.269-.004l1.081-.362c-.288.474-.631.782-1.057.938zm1.894-1.74a.456.456 0 0 0-.42-.103l-.45.157c.288-.362.508-.767.665-1.197.063-.162.039-.308-.074-.42a.385.385 0 0 0-.42-.074c-.808.347-1.581.67-2.208.86l-.014.005c-.005 0-.015-.005-.02-.005-.485-.274-1.689-.89-2.57-.89-2.197.03-3.983 1.901-3.983 4.163v.064c-3.142-.61-4.855-1.5-6.774-3.508l-.357-.357-.215.43c-.881 1.686-.592 3.493.797 4.984a2.384 2.384 0 0 1-1.09-.518c-.153-.113-.329-.127-.48-.035-.152.079-.211.289-.182.455.382 1.28 1.307 2.452 2.55 3.249-.47-.015-.876-.093-1.272-.357l-.005-.005a.486.486 0 0 0-.48.034.384.384 0 0 0-.142.455c.544 1.539 1.581 2.374 3.25 2.623-1.062.591-2.251.88-3.724.904a.486.486 0 0 0-.446.308c-.063.185-.014.361.137.508l.005.005c1.106.889 3.592 1.421 6.641 1.421 5.452 0 9.891-4.841 9.891-10.792v-.063c.705-.362 1.239-1.03 1.508-1.89a.467.467 0 0 0-.118-.411z"/><path id="h62ib" d="M1005.17 5752.925c0 .708-.542 1.25-1.25 1.25h-20.835c-.708 0-1.25-.542-1.25-1.25v-20.84c0-.708.542-1.25 1.25-1.25h20.84c.708 0 1.25.542 1.25 1.25v20.84zm-1.26-22.925h-20.825a2.065 2.065 0 0 0-2.085 2.085v20.835c0 1.162.918 2.08 2.085 2.08H1003.915a2.065 2.065 0 0 0 2.085-2.085v-20.83a2.072 2.072 0 0 0-2.09-2.085z"/></defs><g><g transform="translate(-981 -5730)"><g><g><use fill="#fff" xlink:href="#h62ia"/></g><g><use fill="#fff" xlink:href="#h62ib"/></g></g></g></g></svg>