<?xml version="1.0" encoding="UTF-8"?>
<svg width="25px" height="20px" viewBox="0 0 25 20" version="1.1" xmlns="http://www.w3.org/2000/svg" xmlns:xlink="http://www.w3.org/1999/xlink">
    <!-- Generator: Sketch 50.2 (55047) - http://www.bohemiancoding.com/sketch -->
    <title>icons/youtube/hover copy</title>
    <desc>Created with Sketch.</desc>
    <defs/>
    <g id="icons/youtube/hover-copy" stroke="none" stroke-width="1" fill="none" fill-rule="evenodd">
        <g id="youtube-(1)" fill="#FFFFFF" fill-rule="nonzero">
            <path d="M24.75577,4.3399265 C24.7553793,4.33782975 24.7549398,4.33534291 24.7549398,4.33324616 C24.7445377,4.25503259 24.4923962,2.4004836 23.6930936,1.5295531 C22.753338,0.47264595 21.7119053,0.36615067 21.1522421,0.309148388 L20.9926453,0.291691744 C17.6341775,0.0291106605 12.5583349,0.000438854179 12.4916734,0 C12.4408349,0.000438854179 7.36499224,0.0291106605 3.9881621,0.293788492 L3.84770909,0.30919715 C3.28804587,0.366199431 2.2470039,0.472743474 1.3110575,1.52501827 C0.507994491,2.4004836 0.255462333,4.2546425 0.244229999,4.3399265 C0.241690515,4.36118654 0,6.49157977 0,8.59413014 L0,10.5656094 C0,12.6694276 0.241690515,14.7986018 0.245060215,14.8268835 C0.255462333,14.905097 0.507164275,16.7588171 1.30690642,17.6284798 C2.17414024,18.6029799 3.25556977,18.7432182 3.90191731,18.8272831 C4.01609642,18.8418628 4.11738277,18.8543458 4.24030357,18.877215 C6.17021381,19.0765523 12.238311,19.1380894 12.5008546,19.140625 C12.5516932,19.140625 17.6333473,19.1285809 21.0134983,18.8668288 L21.1589326,18.8505911 C21.717375,18.791931 22.7570983,18.6820711 23.6881123,17.6339411 C24.491566,16.7596948 24.7440981,14.9064136 24.75577,14.8211296 C24.75787,14.7994795 25,12.6694763 25,10.5665359 L25,8.59461776 C25,6.49157977 24.75787,4.36118654 24.75577,4.3399265 Z M17.7062598,10.3496444 L9.78829493,14.772368 C9.72495434,14.8077202 9.65492318,14.8256157 9.58494086,14.8256157 C9.51202836,14.8256157 9.43906703,14.8064524 9.37406601,14.7686134 C9.2465546,14.6937156 9.16822129,14.557232 9.16822129,14.4095331 L9.16822129,5.35811695 C9.16822129,5.20915034 9.24821504,5.0710088 9.37743571,4.99693996 C9.50787728,4.92287113 9.66664388,4.92413893 9.79542502,4.99903671 L17.7133899,9.62772926 C17.8425618,9.70301713 17.9209439,9.84159752 17.9196742,9.99056414 C17.9179649,10.1399208 17.8367014,10.2768433 17.7062598,10.3496444 Z" id="Shape"/>
        </g>
    </g>
</svg>