<svg xmlns="http://www.w3.org/2000/svg" xmlns:xlink="http://www.w3.org/1999/xlink" width="25" height="20" viewBox="0 0 25 20"><defs><path id="grona" d="M1052.175 5742.954c0 2.156-.25 4.313-.25 4.313-.084.474-.334 1.854-.877 2.458-.71.862-1.545.949-2.004.992h-.126c-3.34.259-8.392.259-8.434.259-.042 0-6.305-.087-8.142-.302-.125 0-.25-.043-.376-.043-.584-.044-1.42-.173-2.087-.95-.501-.56-.794-1.94-.836-2.414 0-.044-.25-2.2-.25-4.313v-2.027c0-2.156.25-4.313.25-4.313.042-.474.335-1.854.836-2.458.751-.863 1.544-.949 2.046-.992h.125c3.34-.259 8.392-.302 8.434-.302.042 0 5.094.043 8.434.302h.167c.46.043 1.295.13 2.005.992.5.604.751 1.984.835 2.458.041.086.25 2.243.25 4.313v2.027zm.575-6.514c0-.087-.25-1.983-1.044-2.888-.96-1.078-2.003-1.207-2.546-1.25h-.167c-3.38-.259-8.43-.302-8.514-.302-.042 0-5.133.043-8.472.388h-.125c-.585.043-1.628.172-2.546 1.25-.835.905-1.086 2.845-1.086 2.93 0 0-.25 2.2-.25 4.398v2.025c0 2.156.25 4.354.25 4.397 0 .086.25 1.983 1.044 2.888.876 1.034 1.92 1.164 2.587 1.25.126 0 .21 0 .334.043 1.92.172 8.014.259 8.264.259.042 0 5.134 0 8.514-.388h.126c.584-.043 1.627-.173 2.545-1.25.835-.906 1.086-2.845 1.086-2.931 0 0 .25-2.199.25-4.397v-2.026c0-2.155-.25-4.353-.25-4.396z"/><path id="gronb" d="M1037.441 5746.339v-7.971l6.568 4.094zm7.594-4.269l-7.8-4.835a.355.355 0 0 0-.41 0 .464.464 0 0 0-.205.392v9.452c0 .174.082.305.205.392.082.044.123.044.206.044.082 0 .123 0 .205-.044l7.8-4.617a.464.464 0 0 0 .205-.392.464.464 0 0 0-.206-.392z"/></defs><g><g transform="translate(-1028 -5732)"><g><g><use fill="#fff" xlink:href="#grona"/></g><g><use fill="#fff" xlink:href="#gronb"/></g></g></g></g></svg>