<svg width="12" height="9" viewBox="0 0 12 9" fill="none" xmlns="http://www.w3.org/2000/svg">
    <path fill-rule="evenodd" clip-rule="evenodd" d="M10.73 0.211694C10.586 0.0708976 10.41 0 10.204 0C9.997 0 9.822 0.0708976 9.678 0.211694L4.598 5.1895L2.323 2.95373C2.178 2.81294 2.002 2.74204 1.796 2.74204C1.59 2.74204 1.414 2.81294 1.269 2.95373L0.217 3.98524C0.072 4.12604 0 4.29779 0 4.4995C0 4.70121 0.072 4.87396 0.217 5.01476L3.019 7.7568L4.072 8.78831C4.217 8.9291 4.392 9 4.598 9C4.805 9 4.98 8.9291 5.125 8.78831L6.178 7.7568L11.783 2.27272C11.928 2.13092 12 1.95917 12 1.75746C12 1.55475 11.928 1.384 11.783 1.24221L10.73 0.211694Z" fill="#52AEFF"/>
</svg>
