<svg class="site-image" xmlns="http://www.w3.org/2000/svg" xmlns:xlink="http://www.w3.org/1999/xlink" width="25" height="28" viewBox="0 0 25 28"><defs><path id="nc1ra" d="M302.053 935.382h-23.518c-.27 0-.485-.228-.485-.515 0-.287.215-.515.485-.515h23.525c.27 0 .484.228.484.515a.503.503 0 0 1-.491.515z"/><path id="nc1rb" d="M284.99 931.507c-.214 0-.387.184-.387.412 0 .228.173.412.387.412.215 0 .388-.184.388-.412-.007-.228-.18-.412-.388-.412zm0 1.847c-.748 0-1.35-.648-1.35-1.435 0-.794.61-1.435 1.35-1.435.748 0 1.35.648 1.35 1.435 0 .788-.602 1.435-1.35 1.435z"/><path id="nc1rc" d="M281.087 931.486c-.214 0-.387.184-.387.412 0 .228.173.412.387.412.215 0 .388-.184.388-.412 0-.228-.173-.412-.388-.412zm0 1.847c-.748 0-1.357-.64-1.357-1.435s.61-1.435 1.35-1.435c.748 0 1.35.648 1.35 1.435.008.795-.595 1.435-1.343 1.435z"/><path id="nc1rd" d="M288.9 931.518c-.214 0-.387.184-.387.412 0 .228.173.412.387.412.215 0 .388-.184.388-.412-.007-.228-.18-.412-.388-.412zm0 1.847c-.748 0-1.35-.648-1.35-1.435s.61-1.435 1.35-1.435c.748 0 1.35.648 1.35 1.435s-.609 1.435-1.35 1.435z"/><path id="nc1re" d="M302.107 952.914c0 .75-.54 1.324-1.247 1.324h-20.782c-.707 0-1.247-.574-1.247-1.324v-22.082c0-.75.54-1.324 1.247-1.324h20.782c.706 0 1.247.574 1.247 1.324v22.082zm-1.247-24.289h-20.782c-1.164 0-2.078.971-2.078 2.207v22.082c0 1.229.914 2.207 2.078 2.207h20.782c1.164 0 2.078-.971 2.078-2.207v-22.082c0-1.236-.914-2.207-2.078-2.207z"/></defs><g><g transform="translate(-278 -928)"><g><g><use fill="#0185f9" xlink:href="#nc1ra"/></g><g><use fill="#0185f9" xlink:href="#nc1rb"/></g><g><use fill="#0185f9" xlink:href="#nc1rc"/></g><g><use fill="#0185f9" xlink:href="#nc1rd"/></g><g><use fill="#0185f9" xlink:href="#nc1re"/></g></g></g></g></svg>