<svg xmlns="http://www.w3.org/2000/svg" xmlns:xlink="http://www.w3.org/1999/xlink" width="67" height="50" viewBox="0 0 67 50"><defs><path id="nhrpa" d="M268.92 2039.59l-6.418 7.002-6.42-7.002h3.084v-17.236h6.671v17.236zm-.859-19.39h-11.119v17.236h-5.812l11.372 12.394 11.371-12.394h-5.812z"/><path id="nhrpc" d="M280.35 2053.824h-33.524c-.345 0-.679-.008-1.044-.041-8.382-.602-14.777-7.543-14.484-15.72.292-8.179 7.169-14.67 15.573-14.702.59.002 1.08-.444 1.118-1.017.386-5.677 3.99-10.671 9.345-12.95 5.356-2.277 11.569-1.46 16.11 2.121 4.541 3.581 6.654 9.328 5.479 14.902-.074.338.024.691.261.949.238.258.587.39.942.356.073-.007.152 0 .223 0 7.406 0 13.41 5.845 13.41 13.056 0 7.21-6.004 13.055-13.41 13.055zm.977-28.257c.093-.732.14-1.468.14-2.206-.025-9.177-7.364-16.76-16.772-17.327-9.408-.569-17.654 6.072-18.843 15.177-9.413.527-16.787 8.08-16.852 17.259-.064 9.178 7.202 16.829 16.606 17.482.404.036.806.048 1.22.048h33.523c8.453.004 15.38-6.53 15.643-14.755.264-8.225-6.23-15.167-14.665-15.678z"/><linearGradient id="nhrpb" x1="231.04" x2="295.45" y1="2035.02" y2="2035.02" gradientUnits="userSpaceOnUse"><stop offset="0" stop-color="#006df0"/><stop offset="1" stop-color="#00e7f0"/></linearGradient><linearGradient id="nhrpd" x1="230.85" x2="295.59" y1="2030.98" y2="2030.98" gradientUnits="userSpaceOnUse"><stop offset="0" stop-color="#006df0"/><stop offset="1" stop-color="#00e7f0"/></linearGradient></defs><g><g transform="translate(-229 -2006)"><g><use fill="url(#nhrpb)" xlink:href="#nhrpa"/></g><g><use fill="url(#nhrpd)" xlink:href="#nhrpc"/></g></g></g></svg>