<svg xmlns="http://www.w3.org/2000/svg" xmlns:xlink="http://www.w3.org/1999/xlink" width="49" height="60" viewBox="0 0 49 60"><defs><path id="gq35a" d="M640.149 2058.126c0 .587-.51 1.068-1.13 1.068h-5.824c-.62 0-1.13-.481-1.13-1.068v-2.755V2052.615c0-.586.51-1.067 1.13-1.067h5.824c.62 0 1.13.48 1.13 1.067zm-26.25-33.438h2.857c.521 0 .943-.4.943-.892 0-.494-.422-.893-.943-.893H613.9c.236-5.415 2.657-10.313 6.444-13.919a24.197 24.197 0 0 0 5.165 3.23c-1.005 3.219-1.576 6.872-1.651 10.689h-2.707c-.521 0-.944.4-.944.893s.423.892.944.892h2.707c.075 3.818.646 7.47 1.651 10.689a24.197 24.197 0 0 0-5.165 3.23c-3.787-3.606-6.196-8.504-6.444-13.919zm13.368-16.784c-.423.822-.808 1.68-1.157 2.595a22.596 22.596 0 0 1-4.375-2.736 22.766 22.766 0 0 1 8.751-4.309c-1.18 1.127-2.275 2.618-3.22 4.45zm23.213-.153a21.716 21.716 0 0 1-4.371 2.748 24.232 24.232 0 0 0-1.155-2.595c-.944-1.832-2.036-3.335-3.228-4.462 3.228.799 6.22 2.266 8.754 4.31zm-14.362-4.978c2.647 0 5.181 2.102 7.157 5.918.41.798.782 1.655 1.13 2.548a23.387 23.387 0 0 1-8.287 1.503c-2.87 0-5.678-.517-8.287-1.503.336-.893.709-1.75 1.131-2.548 1.963-3.816 4.51-5.918 7.156-5.918zm10.35 20.125h-20.723c.075-3.557.596-6.963 1.503-9.957a25.241 25.241 0 0 0 8.853 1.585c3.067 0 6.06-.551 8.853-1.585.919 2.994 1.44 6.4 1.515 9.957zm5.402 15.709a24.196 24.196 0 0 0-5.165-3.231c1.006-3.22 1.577-6.874 1.651-10.693h9.959c-.236 5.417-2.658 10.317-6.445 13.924zm-5.761-1.525a22.566 22.566 0 0 1 4.37 2.736 22.643 22.643 0 0 1-8.74 4.31c1.191-1.128 2.284-2.62 3.228-4.45.41-.823.794-1.692 1.142-2.596zm-18.861-2.442c-.907-2.994-1.428-6.4-1.503-9.957h20.724c-.075 3.558-.596 6.963-1.502 9.957a25.241 25.241 0 0 0-8.854-1.585c-3.079 0-6.071.54-8.865 1.585zm1.714 4.25a27.307 27.307 0 0 1-1.13-2.548 23.387 23.387 0 0 1 8.286-1.502c2.87 0 5.678.516 8.287 1.502-.335.893-.708 1.75-1.13 2.548-1.976 3.816-4.51 5.918-7.157 5.918-2.646 0-5.193-2.102-7.156-5.918zm-1.702.787c.944 1.832 2.037 3.335 3.229 4.45a22.643 22.643 0 0 1-8.742-4.309 22.197 22.197 0 0 1 4.37-2.736 23.8 23.8 0 0 0 1.143 2.595zm30.906 14.818h-16.13v-1.867c0-1.573-1.353-2.853-3.017-2.853h-1.974v-3.206c12.863-.47 23.17-10.508 23.17-22.778 0-3.1-.646-6.118-1.925-8.948-.199-.457-.758-.657-1.242-.47a.876.876 0 0 0-.497 1.175 19.862 19.862 0 0 1 1.751 7.35h-9.958c-.075-3.816-.646-7.467-1.652-10.685 1.863-.857 3.601-1.949 5.178-3.24a21.61 21.61 0 0 1 2.918 3.44c.286.41.87.528 1.304.27a.875.875 0 0 0 .286-1.233c-4.47-6.552-12.045-10.45-20.277-10.45-13.286-.012-24.101 10.215-24.101 22.79 0 12.27 10.306 22.31 23.17 22.78v3.205h-1.975c-1.663 0-3.017 1.28-3.017 2.853v1.867h-16.13c-.52 0-.943.4-.943.892 0 .494.422.893.944.893h16.13v1.867c0 1.573 1.353 2.853 3.016 2.853h5.824c1.664 0 3.017-1.28 3.017-2.853v-1.867h16.13c.521 0 .943-.4.943-.893s-.422-.892-.943-.892z"/><linearGradient id="gq35b" x1="612" x2="660.21" y1="2030.99" y2="2030.99" gradientUnits="userSpaceOnUse"><stop offset="0" stop-color="#006df0"/><stop offset="1" stop-color="#00e7f0"/></linearGradient></defs><g><g transform="translate(-612 -2001)"><g><use fill="url(#gq35b)" xlink:href="#gq35a"/></g></g></g></svg>