<svg width="39" height="38" viewBox="0 0 39 38" fill="none" xmlns="http://www.w3.org/2000/svg">
<path d="M38.2998 18.9998C38.2998 20.8399 33.7462 21.9315 33.216 23.5845C32.6546 25.2999 35.68 28.8554 34.6507 30.2901C33.5903 31.7248 29.2863 29.947 27.8516 31.0075C26.4169 32.0367 26.7911 36.715 25.0758 37.2764C23.4228 37.8066 20.99 33.8456 19.1499 33.8456C17.3098 33.8456 14.877 37.8066 13.224 37.2764C11.5087 36.715 11.8829 32.0679 10.4482 31.0075C9.01355 29.947 4.67831 31.7248 3.64909 30.2901C2.61986 28.8554 5.61398 25.2999 5.08377 23.5845C4.55356 21.9315 0 20.8399 0 18.9998C0 17.1596 4.55356 16.068 5.08377 14.415C5.58279 12.6996 2.55748 9.14413 3.58671 7.70945C4.64713 6.27476 8.95118 8.05252 10.3859 6.99211C11.8205 5.96288 11.4463 1.28456 13.1617 0.723164C14.8147 0.192955 17.2474 4.15393 19.0875 4.15393C20.9277 4.15393 23.3604 0.192955 25.0134 0.723164C26.7288 1.28456 26.3545 5.93169 27.7892 6.99211C29.2239 8.05252 33.5591 6.27476 34.5883 7.70945C35.6176 9.14413 32.6234 12.6996 33.1537 14.415C33.7462 16.068 38.2998 17.1596 38.2998 18.9998Z" fill="#0085F9"/>
<path d="M11.3213 19.1558L16.7793 23.647L28.5687 13.23" stroke="white" stroke-width="3" stroke-miterlimit="10"/>
</svg>