<svg width="39" height="39" viewBox="0 0 39 39" fill="none" xmlns="http://www.w3.org/2000/svg">
<path d="M19.375 0C8.67188 0 0 8.67188 0 19.375C0 30.0781 8.67188 38.75 19.375 38.75C30.0781 38.75 38.75 30.0781 38.75 19.375C38.75 8.67188 30.0781 0 19.375 0ZM19.375 35C10.7031 35 3.75 28.0469 3.75 19.375C3.75 10.7812 10.7031 3.75 19.375 3.75C27.9688 3.75 35 10.7812 35 19.375C35 28.0469 27.9688 35 19.375 35ZM24.1406 26.875C24.6094 27.1875 25.1562 27.1094 25.4688 26.6406L26.9531 24.6875C27.2656 24.2188 27.1875 23.6719 26.7188 23.3594L21.5625 19.5312V8.4375C21.5625 7.96875 21.0938 7.5 20.625 7.5H18.125C17.5781 7.5 17.1875 7.96875 17.1875 8.4375V21.3281C17.1875 21.5625 17.2656 21.875 17.5 22.0312L24.1406 26.875Z" fill="#0085F9"/>
</svg>
