<svg width="35" height="40" viewBox="0 0 35 40" fill="none" xmlns="http://www.w3.org/2000/svg">
<path d="M21.25 27.5H19.375V1.25C19.375 0.625 18.75 0 18.125 0H16.875C16.1719 0 15.625 0.625 15.625 1.25V27.5H13.75C13.0469 27.5 12.5 28.125 12.5 28.75V31.25C12.5 31.9531 13.0469 32.5 13.75 32.5H15.625V38.75C15.625 39.4531 16.1719 40 16.875 40H18.125C18.75 40 19.375 39.4531 19.375 38.75V32.5H21.25C21.875 32.5 22.5 31.9531 22.5 31.25V28.75C22.5 28.125 21.875 27.5 21.25 27.5ZM8.75 7.5H6.875V1.25C6.875 0.625 6.25 0 5.625 0H4.375C3.67188 0 3.125 0.625 3.125 1.25V7.5H1.25C0.546875 7.5 0 8.125 0 8.75V11.25C0 11.9531 0.546875 12.5 1.25 12.5H3.125V38.75C3.125 39.4531 3.67188 40 4.375 40H5.625C6.25 40 6.875 39.4531 6.875 38.75V12.5H8.75C9.375 12.5 10 11.9531 10 11.25V8.75C10 8.125 9.375 7.5 8.75 7.5ZM33.75 17.5H31.875V1.25C31.875 0.625 31.25 0 30.625 0H29.375C28.6719 0 28.125 0.625 28.125 1.25V17.5H26.25C25.5469 17.5 25 18.125 25 18.75V21.25C25 21.9531 25.5469 22.5 26.25 22.5H28.125V38.75C28.125 39.4531 28.6719 40 29.375 40H30.625C31.25 40 31.875 39.4531 31.875 38.75V22.5H33.75C34.375 22.5 35 21.9531 35 21.25V18.75C35 18.125 34.375 17.5 33.75 17.5Z" fill="#0085F9"/>
</svg>
