<svg width="40" height="40" viewBox="0 0 40 40" fill="none" xmlns="http://www.w3.org/2000/svg">
<path d="M39.0625 18.125H36.7188C35.8594 10.3125 29.6875 4.14062 21.875 3.28125V0.9375C21.875 0.46875 21.4062 0 20.9375 0H19.0625C18.5156 0 18.125 0.46875 18.125 0.9375V3.28125C10.2344 4.14062 4.0625 10.3125 3.20312 18.125H0.9375C0.390625 18.125 0 18.5938 0 19.0625V20.9375C0 21.4844 0.390625 21.875 0.9375 21.875H3.20312C4.0625 29.7656 10.2344 35.9375 18.125 36.7969V39.0625C18.125 39.6094 18.5156 40 19.0625 40H20.9375C21.4062 40 21.875 39.6094 21.875 39.0625V36.7969C29.6875 35.9375 35.8594 29.7656 36.7188 21.875H39.0625C39.5312 21.875 40 21.4844 40 20.9375V19.0625C40 18.5938 39.5312 18.125 39.0625 18.125ZM21.875 33.0469V29.6875C21.875 29.2188 21.4062 28.75 20.9375 28.75H19.0625C18.5156 28.75 18.125 29.2188 18.125 29.6875V33.0469C12.3438 32.1875 7.8125 27.6562 6.95312 21.875H10.3125C10.7812 21.875 11.25 21.4844 11.25 20.9375V19.0625C11.25 18.5938 10.7812 18.125 10.3125 18.125H6.95312C7.8125 12.4219 12.3438 7.89062 18.125 7.03125V10.3125C18.125 10.8594 18.5156 11.25 19.0625 11.25H20.9375C21.4062 11.25 21.875 10.8594 21.875 10.3125V7.03125C27.5781 7.89062 32.1094 12.4219 32.9688 18.125H29.6875C29.1406 18.125 28.75 18.5938 28.75 19.0625V20.9375C28.75 21.4844 29.1406 21.875 29.6875 21.875H32.9688C32.1094 27.6562 27.5781 32.1875 21.875 33.0469ZM22.5 20C22.5 18.6719 21.3281 17.5 20 17.5C18.5938 17.5 17.5 18.6719 17.5 20C17.5 21.4062 18.5938 22.5 20 22.5C21.3281 22.5 22.5 21.4062 22.5 20Z" fill="#0085F9"/>
</svg>
