<svg width="200" height="23" viewBox="0 0 200 23" version="1.1" xmlns="http://www.w3.org/2000/svg" xmlns:xlink="http://www.w3.org/1999/xlink">
<title>Group</title>
<desc>Created using Figma</desc>
<g id="Canvas" transform="translate(15616 1604)">
<g id="Group">
<g id="Group">
<g id="Group">
<g id="Group">
<g id="Group">
<g id="Vector">
<use xlink:href="#path0_fill" transform="translate(-15597.8 -1604)" fill="#0085F9"/>
</g>
</g>
</g>
<g id="Group">
<g id="Group">
<g id="Vector">
<use xlink:href="#path1_fill" transform="translate(-15608 -1604)" fill="#0085F9"/>
</g>
</g>
</g>
<g id="Group">
<g id="Group">
<g id="Vector">
<use xlink:href="#path2_fill" transform="translate(-15616 -1604)" fill="#0085F9"/>
</g>
</g>
</g>
</g>
</g>
<g id="Group">
<g id="Group">
<g id="Vector">
<use xlink:href="#path3_fill" transform="translate(-15573.8 -1602.43)" fill="#1A1833"/>
</g>
</g>
<g id="Group">
<g id="Vector">
<use xlink:href="#path4_fill" transform="translate(-15554.7 -1602.66)" fill="#1A1833"/>
</g>
</g>
<g id="Group">
<g id="Vector">
<use xlink:href="#path5_fill" transform="translate(-15529.5 -1602.66)" fill="#1A1833"/>
</g>
</g>
<g id="Group">
<g id="Vector">
<use xlink:href="#path6_fill" transform="translate(-15503.5 -1602.43)" fill="#1A1833"/>
</g>
</g>
<g id="Group">
<g id="Vector">
<use xlink:href="#path7_fill" transform="translate(-15481.5 -1602.43)" fill="#1A1833"/>
</g>
</g>
<g id="Group">
<g id="Vector">
<use xlink:href="#path8_fill" transform="translate(-15454.8 -1602.43)" fill="#1A1833"/>
</g>
</g>
<g id="Group">
<g id="Vector">
<use xlink:href="#path9_fill" transform="translate(-15430.2 -1602.43)" fill="#1A1833"/>
</g>
</g>
</g>
</g>
</g>
<defs>
<path id="path0_fill" d="M 10.9864 0L 0 0L 0 22.2284L 10.9864 22.2284L 10.9864 0Z"/>
<path id="path1_fill" d="M 6.93201 0L 0 0L 0 22.2284L 6.93201 22.2284L 6.93201 0Z"/>
<path id="path2_fill" d="M 4.47227 0L 0 0L 0 22.2284L 4.47227 22.2284L 4.47227 0Z"/>
<path id="path3_fill" d="M 13.6169 11.1138C 14.308 11.9829 14.6543 13.0673 14.6543 14.3683C 14.6543 15.1686 14.5205 15.9011 14.2517 16.5656C 13.9837 17.2294 13.588 17.8071 13.0649 18.2985C 12.5417 18.7899 11.8687 19.172 11.0451 19.4448C 10.2214 19.7168 9.27803 19.8534 8.2141 19.8534L 9.07353e-07 19.8534L 9.07353e-07 -6.89711e-09L 7.16303 -6.89711e-09C 9.27361 -6.89711e-09 10.8812 0.413839 11.9865 1.24152C 13.0926 2.0692 13.6446 3.27053 13.6446 4.84473C 13.6446 5.46308 13.5494 6.04768 13.3578 6.59812C 13.1673 7.14777 12.8443 7.66647 12.3891 8.15303C 11.9338 8.64 11.3613 9.01526 10.6698 9.27884L 10.6698 9.33388C 11.9435 9.65129 12.9258 10.2455 13.6169 11.1138ZM 3.86156 8.13254L 6.67205 8.13254C 7.21808 8.13254 7.70946 8.05339 8.1454 7.89388C 8.58254 7.73518 8.94415 7.47562 9.23062 7.11602C 9.51669 6.75723 9.66013 6.31326 9.66013 5.78611C 9.66013 5.31281 9.55125 4.90861 9.33308 4.57192C 9.1141 4.23522 8.75933 3.96924 8.26834 3.77317C 7.77736 3.5775 7.15902 3.48027 6.4129 3.48027L 3.86156 3.48027L 3.86156 8.13254ZM 8.87544 16.1216C 9.39857 15.9352 9.8104 15.6536 10.1101 15.2759C 10.4107 14.8982 10.5609 14.4317 10.5609 13.8773C 10.5609 13.0769 10.2628 12.4465 9.66696 11.9873C 9.07112 11.528 8.20446 11.2986 7.06781 11.2986L 3.86156 11.2986L 3.86156 16.4017L 7.02683 16.4017C 7.73598 16.4017 8.35232 16.3081 8.87544 16.1216Z"/>
<path id="path4_fill" d="M 6.01071 19.5545C 4.75111 19.0446 3.68196 18.3447 2.80446 17.4524C 1.92616 16.5612 1.23911 15.4852 0.743706 14.2252C 0.248304 12.9656 1.52043e-06 11.608 1.52043e-06 10.1523C 1.52043e-06 8.69665 0.248304 7.34102 0.743706 6.08544C 1.23911 4.83107 1.92616 3.75669 2.80446 2.86553C 3.68196 1.97437 4.75272 1.27366 6.01754 0.764196C 7.28156 0.255134 8.65124 -5.36442e-09 10.1246 -5.36442e-09C 11.5706 -5.36442e-09 12.9154 0.248303 14.1569 0.743705C 15.3984 1.23991 16.4652 1.92616 17.3563 2.80446C 18.2475 3.68196 18.9482 4.75272 19.4577 6.01754C 19.9671 7.28236 20.2219 8.66049 20.2219 10.1523C 20.2219 11.6441 19.9667 13.0247 19.4577 14.2939C 18.9486 15.5632 18.2479 16.6363 17.3563 17.5138C 16.4652 18.3913 15.3984 19.0784 14.1569 19.5738C 12.9154 20.07 11.5706 20.3175 10.1246 20.3175C 8.6416 20.3179 7.27031 20.064 6.01071 19.5545ZM 12.5192 16.1707C 13.2601 15.8428 13.8974 15.3928 14.4289 14.8191C 14.9613 14.2461 15.3795 13.555 15.6845 12.7454C 15.9895 11.9358 16.1421 11.072 16.1421 10.1531C 16.1421 8.92526 15.8802 7.81473 15.3574 6.82393C 14.8343 5.83232 14.1159 5.05848 13.2015 4.50361C 12.2878 3.94875 11.2661 3.67152 10.1387 3.67152C 8.97428 3.67152 7.92843 3.96 7.00031 4.53777C 6.07218 5.11553 5.3558 5.89781 4.85116 6.8846C 4.34651 7.87138 4.09379 8.96102 4.09379 10.1527C 4.09379 11.3533 4.34611 12.4473 4.85116 13.4345C 5.3562 14.4213 6.07218 15.206 7.00031 15.7882C 7.92843 16.3703 8.97428 16.6616 10.1387 16.6616C 10.984 16.6616 11.7775 16.4977 12.5192 16.1707Z"/>
<path id="path5_fill" d="M 6.01071 19.5545C 4.75111 19.0446 3.68196 18.3447 2.80446 17.4524C 1.92616 16.5612 1.23911 15.4852 0.743705 14.2252C 0.248303 12.9656 4.90461e-07 11.608 4.90461e-07 10.1523C 4.90461e-07 8.69665 0.248303 7.34102 0.743705 6.08544C 1.23911 4.83107 1.92616 3.75669 2.80446 2.86553C 3.68196 1.97437 4.75272 1.27366 6.01754 0.764196C 7.28156 0.255134 8.65125 -5.36442e-09 10.1246 -5.36442e-09C 11.5706 -5.36442e-09 12.9154 0.248303 14.1569 0.743705C 15.3984 1.23991 16.4652 1.92616 17.3563 2.80446C 18.2475 3.68196 18.9482 4.75272 19.4577 6.01754C 19.9667 7.28236 20.2219 8.66049 20.2219 10.1523C 20.2219 11.6441 19.9667 13.0247 19.4577 14.2939C 18.9486 15.5632 18.2479 16.6363 17.3563 17.5138C 16.4652 18.3913 15.3984 19.0784 14.1569 19.5738C 12.9154 20.07 11.5706 20.3175 10.1246 20.3175C 8.64161 20.3179 7.27031 20.064 6.01071 19.5545ZM 12.5196 16.1707C 13.2605 15.8428 13.8978 15.3928 14.4293 14.8191C 14.9617 14.2461 15.3799 13.555 15.6849 12.7454C 15.9899 11.9358 16.1425 11.072 16.1425 10.1531C 16.1425 8.92526 15.8806 7.81473 15.3579 6.82393C 14.8347 5.83232 14.1163 5.05848 13.2019 4.50361C 12.2882 3.94875 11.2665 3.67152 10.1391 3.67152C 8.97468 3.67152 7.92883 3.96 7.00071 4.53777C 6.07259 5.11553 5.3562 5.89781 4.85156 6.8846C 4.34692 7.87138 4.0942 8.96102 4.0942 10.1527C 4.0942 11.3533 4.34652 12.4473 4.85156 13.4345C 5.3566 14.4213 6.07259 15.206 7.00071 15.7882C 7.92883 16.3703 8.97468 16.6616 10.1391 16.6616C 10.9844 16.6616 11.7775 16.4977 12.5196 16.1707Z"/>
<path id="path6_fill" d="M 5.84075 11.8985L 3.9166 14.2047L 3.9166 19.853L 4.90461e-07 19.853L 4.90461e-07 -6.89711e-09L 3.9166 -6.89711e-09L 3.9166 8.74647L 3.94393 8.74647L 10.8072 -6.89711e-09L 15.7737 -6.89711e-09L 8.4604 8.76053L 16.0196 19.8538L 11.1757 19.8538L 5.88093 11.8989L 5.84075 11.8989L 5.84075 11.8985Z"/>
<path id="path7_fill" d="M 20.1274 -6.89711e-09L 20.1274 19.8538L 16.2245 19.8538L 16.2245 7.51861L 16.1843 7.51861L 11.3404 16.0875L 8.78826 16.0875L 3.94433 7.51861L 3.90294 7.51861L 3.90294 19.8538L -1.37329e-06 19.8538L -1.37329e-06 -6.89711e-09L 3.95759 -6.89711e-09L 10.0567 11.2986L 10.1109 11.2986L 16.1699 -6.89711e-09L 20.1274 -6.89711e-09Z"/>
<path id="path8_fill" d="M 13.0717 15.8834L 5.45785 15.8834L 4.10705 19.8538L 3.7275e-06 19.8538L 7.35469 2.2224e-08L 11.1475 2.2224e-08L 18.5295 19.8538L 14.4225 19.8538L 13.0717 15.8834ZM 11.9254 12.5269L 9.26518 4.73504L 9.23786 4.73504L 6.59049 12.5269L 11.9254 12.5269Z"/>
<path id="path9_fill" d="M 0.000401001 -6.89711e-09L 7.34223 -6.89711e-09C 8.51504 -6.89711e-09 9.55004 0.163928 10.4464 0.490982C 11.342 0.818839 12.0632 1.2825 12.6084 1.88277C 13.1545 2.48303 13.5643 3.17933 13.8371 3.97125C 14.1091 4.76196 14.2457 5.64469 14.2457 6.61781C 14.2457 7.69098 14.0729 8.63759 13.727 9.45683C 13.3819 10.2753 12.8881 10.9483 12.2464 11.4758C 11.6052 12.0037 10.8418 12.3999 9.95463 12.6635C 9.06749 12.927 8.07308 13.0592 6.97339 13.0592L 3.87523 13.0592L 3.87523 19.8542L -3.62941e-06 19.8542L -3.62941e-06 -6.89711e-09L 0.000401001 -6.89711e-09ZM 6.48281 9.57937C 7.68334 9.57937 8.59941 9.30616 9.23222 8.76013C 9.86423 8.21491 10.18 7.47281 10.18 6.53625C 10.18 5.59969 9.87267 4.85759 9.25874 4.31236C 8.64482 3.76634 7.77415 3.49312 6.64594 3.49312L 3.87562 3.49312L 3.87562 9.57937L 6.48281 9.57937Z"/>
</defs>
</svg>
