<svg width="18" height="19" viewBox="0 0 18 19" fill="none" xmlns="http://www.w3.org/2000/svg">
<path d="M7.88867 13.1318C7.69341 13.3271 7.69341 13.6437 7.88867 13.8389C8.08393 14.0342 8.40051 14.0342 8.59578 13.8389L7.88867 13.1318ZM12.4849 9.24274L12.8384 9.59629L13.192 9.24274L12.8384 8.88918L12.4849 9.24274ZM8.59578 4.64654C8.40051 4.45128 8.08393 4.45128 7.88867 4.64654C7.69341 4.84181 7.69341 5.15839 7.88867 5.35365L8.59578 4.64654ZM8.59578 13.8389L12.8384 9.59629L12.1313 8.88918L7.88867 13.1318L8.59578 13.8389ZM12.8384 8.88918L8.59578 4.64654L7.88867 5.35365L12.1313 9.59629L12.8384 8.88918Z" fill="#0085F9"/>
<line x1="11.5" y1="9.19995" x2="0.5" y2="9.19995" stroke="#0085F9" stroke-linecap="round" stroke-linejoin="round"/>
<path d="M5 15.5C5 18.0384 5 18 5 18H17V1H5V3.25" stroke="#0085F9" stroke-linecap="round" stroke-linejoin="round"/>
</svg>