<svg xmlns="http://www.w3.org/2000/svg" xmlns:xlink="http://www.w3.org/1999/xlink" width="62" height="60" viewBox="0 0 62 60"><defs><path id="vds8a" d="M1030.509 2032.957h.98v1.465c0 .48.413.879.909.879.497 0 .908-.399.908-.88v-1.464h.981c.206.68.315 2.355-1.889 5.121-2.204-2.765-2.095-4.441-1.889-5.121zm.012-30.2h3.754a.83.83 0 0 1 .848.821v2.895h-5.45v-2.895c0-.457.388-.82.848-.82zm-.848 24.917v-15.928h5.45v15.928zm0-19.444h5.45v1.758h-5.45zm0 22.97v-1.759h5.45v1.758zm14.06 20.777v1.747h-24.825v-1.747zm-24.825 6.386c0 .48-.412.88-.908.88-.496 0-.908-.4-.908-.88v-2.87h1.816zm-30.092-41.309h1.635v25.13c0 .481.411.88.907.88.497 0 .908-.399.908-.88v-28.176h2.809a9.853 9.853 0 0 0-.993 4.335c0 4.745 3.341 8.74 7.868 9.912v13.637c0 1.453 1.223 2.636 2.724 2.636 1.501 0 2.724-1.183 2.724-2.636v-13.637c4.527-1.172 7.868-5.167 7.868-9.912a9.853 9.853 0 0 0-.993-4.335h2.809v36.202h-24.816v-4.217c0-.48-.411-.88-.907-.88-.497 0-.908.4-.908.88v8.61c0 .481.411.88.908.88h23.907v1.991h-26.45zm14.955 11.508a11.75 11.75 0 0 0 1.817 0v13.346c0 .48-.412.88-.908.88-.497 0-.909-.4-.909-.88zm.909-18.714c4.843 0 8.779 3.808 8.779 8.496 0 4.687-3.936 8.496-8.78 8.496-4.843 0-8.779-3.809-8.779-8.496 0-4.688 3.936-8.496 8.78-8.496zm-12.412 43.876v-1.747h24.824v1.747zm55.824-38.427h-2.543v-2.168c0-.48-.412-.879-.908-.879h-7.702v-8.672c0-1.418-1.199-2.578-2.664-2.578h-3.754c-1.465 0-2.664 1.16-2.664 2.578v8.672h-14.664a10.711 10.711 0 0 0-8.513-4.16c-3.488 0-6.588 1.64-8.513 4.16h-4.808c-.496 0-.908.398-.908.879v2.168h-2.543c-.496 0-.908.398-.908.879v42.187c0 .48.412.88.908.88h27.525c.375 1.019 1.38 1.757 2.567 1.757 1.187 0 2.192-.738 2.567-1.758h5.159c.496 0 .908-.398.908-.879 0-.48-.412-.879-.908-.879h-5.001v-1.992h23.916c.496 0 .908-.398.908-.879v-31.148c0-.48-.412-.88-.908-.88-.497 0-.909.4-.909.88v26.754h-24.824v-36.211h8.949v17.496c0 .562.34 1.055.823 1.3-.181.856-.157 2.134.642 3.81h-5.873c-.496 0-.908.398-.908.878s.412.88.908.88h6.927c.242.339.508.69.811 1.066.29.351.739.562 1.211.562.472 0 .92-.2 1.211-.563.303-.363.581-.726.811-1.066h4.771c.497 0 .909-.398.909-.879 0-.48-.412-.879-.909-.879h-3.717c.799-1.675.823-2.953.642-3.808.496-.235.823-.727.823-1.301v-17.496h6.793v5.742c0 .48.412.879.909.879.496 0 .908-.399.908-.879v-2.695h1.635v40.43h-17.559c-.496 0-.908.398-.908.878s.412.88.908.88h18.467c.496 0 .908-.4.908-.88v-42.187c0-.48-.412-.88-.908-.88z"/><path id="vds8c" d="M1023.082 2033.678h2.349c.498 0 .912-.27.912-.594 0-.325-.414-.594-.912-.594h-2.349c-.498 0-.912.27-.912.594 0 .325.414.594.912.594z"/><path id="vds8e" d="M1040.055 2041.394c0-.325-.42-.594-.925-.594h-16.035c-.506 0-.925.27-.925.594 0 .325.42.594.925.594h16.035c.505 0 .925-.27.925-.594z"/><path id="vds8g" d="M1023.048 2044.96c-.48 0-.878.27-.878.594 0 .325.398.594.878.594h5.398c.48 0 .878-.27.878-.594 0-.325-.398-.594-.878-.594z"/><linearGradient id="vds8b" x1="987" x2="1049" y1="2031" y2="2031" gradientUnits="userSpaceOnUse"><stop offset="0" stop-color="#006df0"/><stop offset="1" stop-color="#00e7f0"/></linearGradient><linearGradient id="vds8d" x1="1022.17" x2="1026.36" y1="2033.08" y2="2033.08" gradientUnits="userSpaceOnUse"><stop offset="0" stop-color="#006df0"/><stop offset="1" stop-color="#00e7f0"/></linearGradient><linearGradient id="vds8f" x1="1022.17" x2="1040.06" y1="2041.39" y2="2041.39" gradientUnits="userSpaceOnUse"><stop offset="0" stop-color="#006df0"/><stop offset="1" stop-color="#00e7f0"/></linearGradient><linearGradient id="vds8h" x1="1022.17" x2="1029.33" y1="2045.56" y2="2045.56" gradientUnits="userSpaceOnUse"><stop offset="0" stop-color="#006df0"/><stop offset="1" stop-color="#00e7f0"/></linearGradient></defs><g><g transform="translate(-987 -2001)"><g><use fill="url(#vds8b)" xlink:href="#vds8a"/></g><g><use fill="url(#vds8d)" xlink:href="#vds8c"/></g><g><use fill="url(#vds8f)" xlink:href="#vds8e"/></g><g><use fill="url(#vds8h)" xlink:href="#vds8g"/></g></g></g></svg>