<svg width="32" height="32" viewBox="0 0 32 32" fill="none" xmlns="http://www.w3.org/2000/svg">
<path fill-rule="evenodd" clip-rule="evenodd" d="M21.7176 15.2802C21.5415 15.1039 21.3559 14.9374 21.1616 14.7814L21.1669 14.7659C22.9249 9.3409 20.9584 3.40264 16.3098 0.0992498C16.1244 -0.0330833 15.8755 -0.0330833 15.6901 0.0992498C11.0416 3.40264 9.07504 9.3409 10.833 14.7659L10.8384 14.7814C7.90558 17.1356 7.43651 21.4216 9.79071 24.3544C9.94671 24.5487 10.1132 24.7343 10.2896 24.9104C10.3896 25.0104 10.5252 25.0667 10.6666 25.0667C10.7239 25.0666 10.7808 25.0574 10.8352 25.0395C11.0268 24.9757 11.166 24.8091 11.1946 24.6091L11.5973 21.7909C11.635 21.5285 11.8596 21.3335 12.1248 21.3333H13.7493L13.344 23.36C13.285 23.6486 13.4712 23.9303 13.7598 23.9892C13.795 23.9964 13.8308 24 13.8666 24H18.1333C18.4278 24.0001 18.6667 23.7613 18.6668 23.4668C18.6668 23.4309 18.6632 23.3951 18.656 23.36L18.2506 21.3333H19.8752C20.1404 21.3336 20.3652 21.5288 20.4026 21.7915L20.8053 24.6091C20.834 24.8091 20.9731 24.9757 21.1648 25.0395C21.2192 25.0574 21.276 25.0666 21.3333 25.0667C21.4748 25.0667 21.6104 25.0104 21.7104 24.9104C24.3717 22.2531 24.3749 17.9415 21.7176 15.2802ZM16 1.19638C17.2818 2.17425 18.354 3.39978 19.153 4.80011H12.8469C13.6459 3.39978 14.7182 2.17425 16 1.19638ZM12.1248 20.2667C11.3298 20.2701 10.6568 20.8541 10.5413 21.6406L10.3104 23.2582C9.59784 22.1824 9.26918 20.8976 9.37758 19.6118H9.37704C9.49444 18.1831 10.1411 16.8498 11.1904 15.8731L12.6016 20.2667H12.1248ZM14.5173 22.9334L14.8373 21.3334H17.1626L17.4826 22.9334H14.5173ZM13.7221 20.2667L11.9664 14.8044L11.849 14.439C10.9398 11.6226 11.104 8.56937 12.3104 5.86677H19.6896C20.8959 8.56937 21.0602 11.6226 20.1509 14.439L20.0336 14.8044L18.2778 20.2667H13.7221ZM21.6896 23.2582L21.4586 21.6406C21.3431 20.8541 20.6701 20.2701 19.8752 20.2667H19.3984L20.8106 15.8731C21.8593 16.8501 22.5054 18.1833 22.6223 19.6118C22.7308 20.8976 22.4021 22.1824 21.6896 23.2582ZM16 7.4668C14.2327 7.4668 12.8 8.89946 12.8 10.6668C12.8018 12.4334 14.2334 13.8651 16 13.8668C17.7674 13.8668 19.2 12.4341 19.2 10.6668C19.2 8.89946 17.7674 7.4668 16 7.4668ZM16 12.8001C14.8218 12.8001 13.8667 11.845 13.8667 10.6668C13.8667 9.4886 14.8218 8.53346 16 8.53346C17.1782 8.53346 18.1334 9.4886 18.1334 10.6668C18.1334 11.845 17.1783 12.8001 16 12.8001ZM13.8666 26.7627V25.0241H14.9333V29.2907H13.8666V27.8934C12.694 27.3776 11.3202 27.7718 10.5994 28.831C10.5955 28.8366 10.5909 28.8413 10.5863 28.846C10.5821 28.8502 10.5779 28.8544 10.5744 28.8593H10.5776C10.2869 29.3206 10.1328 29.8548 10.1333 30.4H9.06665C9.07011 29.7549 9.23025 29.1201 9.53331 28.5505C8.93491 27.7076 7.96698 27.2049 6.93332 27.2001C6.45625 27.1998 5.98532 27.3073 5.55572 27.5147C5.55039 27.5201 5.54452 27.5201 5.53919 27.5201C4.98992 27.7916 4.52992 28.2147 4.21332 28.7393C4.93972 29.6709 5.33392 30.8186 5.33332 32H4.26666C4.26399 29.6447 2.35533 27.7361 0 27.7334V26.6667C1.26433 26.6663 2.48726 27.1175 3.44853 27.9387C3.79899 27.4519 4.24806 27.0443 4.76639 26.7425C4.54386 24.5737 2.71353 22.9267 0.533332 22.9334H0V21.8667H0.533332C3.13159 21.8575 5.35439 23.7311 5.78505 26.2934C6.15859 26.1873 6.54499 26.1334 6.93332 26.1334C8.19292 26.1371 9.38691 26.6955 10.1973 27.6598C11.164 26.7115 12.5715 26.3674 13.8666 26.7627ZM31.4666 22.9334H32V21.8667H31.4666C28.8684 21.8575 26.6456 23.7311 26.2149 26.2934C25.8414 26.1873 25.455 26.1334 25.0666 26.1334C23.8073 26.1367 22.6133 26.6945 21.8026 27.6582C20.836 26.7099 19.4284 26.3658 18.1333 26.7611V25.0225H17.0667V29.2891H18.1333V27.8934C19.3059 27.3775 20.6796 27.7715 21.4005 28.8305C21.4044 28.836 21.4091 28.8407 21.4137 28.8454C21.4163 28.8481 21.4189 28.8507 21.4213 28.8535C21.4228 28.8552 21.4242 28.8569 21.4256 28.8587H21.4224C21.7132 29.3202 21.8672 29.8546 21.8666 30.4H22.9333C22.9298 29.7549 22.7697 29.1201 22.4666 28.5505C23.065 27.7076 24.033 27.2049 25.0666 27.2001C25.5438 27.2001 26.0147 27.3081 26.4442 27.5158C26.4496 27.5185 26.4554 27.519 26.4608 27.5211C27.0108 27.792 27.4718 28.2147 27.7893 28.7393C27.0619 29.6706 26.6668 30.8183 26.6666 32H27.7333C27.736 29.6447 29.6446 27.7361 32 27.7334V26.6667C30.7356 26.6665 29.5128 27.1175 28.5514 27.9387C28.201 27.4519 27.7519 27.0443 27.2336 26.7425C27.4562 24.5736 29.2864 22.9267 31.4666 22.9334ZM13.3333 15.4668H14.3999V16.5335H13.3333V15.4668ZM16.5332 15.4668H15.4666V16.5335H16.5332V15.4668ZM17.5999 15.4668H18.6665V16.5335H17.5999V15.4668ZM6.93336 28.2666H5.8667V29.3333H6.93336V28.2666ZM0 19.7334H1.06666V20.8001H0V19.7334ZM30.9334 24.5334H29.8667V25.6001H30.9334V24.5334ZM25.5999 22.4001H26.6665V23.4668H25.5999V22.4001ZM20.8001 30.9333H19.7334V32H20.8001V30.9333ZM30.9333 18.6667H32V19.7334H30.9333V18.6667Z" fill="url(#paint0_linear)"/>
<defs>
<linearGradient id="paint0_linear" x1="0" y1="10.6667" x2="32" y2="10.6667" gradientUnits="userSpaceOnUse">
<stop stop-color="#016EF1"/>
<stop offset="1" stop-color="#01E7F1"/>
</linearGradient>
</defs>
</svg>
