<svg width="21" height="22" viewBox="0 0 21 22" fill="none" xmlns="http://www.w3.org/2000/svg">
<path d="M10.125 0.734375L9.79688 1.0625C9.5625 1.29688 9.5625 1.625 9.79688 1.85938L18.1406 10.2031H0.5625C0.234375 10.2031 0 10.4844 0 10.7656V11.2344C0 11.5625 0.234375 11.7969 0.5625 11.7969H18.1406L9.79688 20.1875C9.5625 20.4219 9.5625 20.75 9.79688 20.9844L10.125 21.3125C10.3594 21.5469 10.6875 21.5469 10.9219 21.3125L20.8125 11.4219C21.0469 11.1875 21.0469 10.8594 20.8125 10.625L10.9219 0.734375C10.6875 0.5 10.3594 0.5 10.125 0.734375Z" fill="white"/>
</svg>
