<svg width="22" height="22" viewBox="0 0 22 22" fill="none" xmlns="http://www.w3.org/2000/svg">
<path opacity="0.25" d="M11.8281 21.3125L12.1562 20.9844C12.3906 20.75 12.3906 20.4219 12.1562 20.1875L3.8125 11.7969H21.4375C21.7188 11.7969 22 11.5625 22 11.2344V10.7656C22 10.4844 21.7188 10.2031 21.4375 10.2031H3.8125L12.1562 1.85938C12.3906 1.625 12.3906 1.29688 12.1562 1.0625L11.8281 0.734375C11.5938 0.5 11.2656 0.5 11.0312 0.734375L1.14062 10.625C0.90625 10.8594 0.90625 11.1875 1.14062 11.4219L11.0312 21.3125C11.2656 21.5469 11.5938 21.5469 11.8281 21.3125Z" fill="#124258"/>
</svg>
