<svg width="48" height="48" viewBox="0 0 48 48" fill="none" xmlns="http://www.w3.org/2000/svg">
<path fill-rule="evenodd" clip-rule="evenodd" d="M26 10C26 11.5367 25.4223 12.9385 24.4722 14H32C33.1046 14 34 14.8954 34 16V23.5278C35.0615 22.5777 36.4633 22 38 22C41.3137 22 44 24.6863 44 28C44 31.3137 41.3137 34 38 34C36.4633 34 35.0615 33.4223 34 32.4722V40C34 41.1046 33.1046 42 32 42H24.4722C25.4223 40.9385 26 39.5367 26 38C26 34.6863 23.3137 32 20 32C16.6863 32 14 34.6863 14 38C14 39.5367 14.5777 40.9385 15.5278 42H8C6.89543 42 6 41.1046 6 40V16C6 14.8954 6.89543 14 8 14H15.5278C14.5777 12.9385 14 11.5367 14 10C14 6.68629 16.6863 4 20 4C23.3137 4 26 6.68629 26 10Z" fill="#607D8B"/>
</svg>
